<svg id="svg" fill="#000000" stroke="#000000" width="200px" height="200px" version="1.1" viewBox="144 144 512 512" xmlns="http://www.w3.org/2000/svg">
    <g id="IconSvg_bgCarrier" stroke-width="0"></g>
    <g id="IconSvg_tracerCarrier" stroke-linecap="round" stroke-linejoin="round" stroke="#CCCCCC"></g>
     <g id="IconSvg_iconCarrier">
      <g xmlns="http://www.w3.org/2000/svg" fill-rule="evenodd">
  <path d="m306.82 596.28h186.37v-392.56h-186.37zm192.27 11.805h-198.17c-3.2695 0-5.9062-2.6406-5.9062-5.9023l0.003907-404.37c0-3.2617 2.6328-5.9023 5.9023-5.9023h198.17c3.2617 0 5.9062 2.6445 5.9062 5.9062l0.003906 404.37c0 3.2617-2.6484 5.9062-5.9102 5.9023z"></path>
  <path d="m460.18 608.09c-3.2617 0-5.9062-2.6406-5.9062-5.9023l0.003906-151.43h-108.56v151.43c0 3.2617-2.6328 5.9062-5.9023 5.9062-3.2578-0.003907-5.9023-2.6406-5.9023-5.9023v-157.33c0-3.2617 2.6445-5.9023 5.9023-5.9023h120.37c3.2617 0 5.9023 2.6445 5.9023 5.9062l0.003907 157.33c0 3.2617-2.6484 5.9062-5.9023 5.9023z"></path>
  <path d="m300.91 608.09h-121.34c-3.2578 0-5.9062-2.6406-5.9062-5.9062v-252.19c0-3.2617 2.6445-5.9023 5.9023-5.9023h121.34c3.2617 0 5.9023 2.6445 5.9023 5.9062 0.003906 3.2578-2.6445 5.9023-5.9023 5.9023h-115.44v240.38h115.44c3.2617 0 5.9023 2.6445 5.9023 5.9023 0.003906 3.2617-2.6445 5.9062-5.9023 5.9062z"></path>
  <path d="m179.57 355.9c-2.293 0-4.4805-1.3477-5.4336-3.5938-1.2773-3 0.11328-6.4688 3.1172-7.7461l121.34-51.676c3.0039-1.2812 6.4648 0.12109 7.7461 3.1172 1.2695 3-0.12109 6.4688-3.125 7.7461l-121.34 51.676c-0.74609 0.32031-1.5391 0.47656-2.3047 0.47656z"></path>
  <path d="m216.41 422.66c-3.1875 0-5.7812 2.5938-5.7812 5.7852 0.003907 3.1875 2.5938 5.7812 5.7812 5.7812h47.652c3.1875 0 5.7812-2.5938 5.7812-5.7812 0-3.1914-2.5938-5.7852-5.7812-5.7852zm47.652 23.375h-47.652c-9.6953 0-17.59-7.8906-17.59-17.59 0.003906-9.6992 7.8906-17.59 17.59-17.59h47.652c9.7109 0 17.586 7.8945 17.586 17.594s-7.8828 17.59-17.586 17.59z"></path>
  <path d="m216.41 470.3c-3.1875 0-5.7812 2.5977-5.7812 5.7852 0.003907 3.1875 2.5938 5.7852 5.7812 5.7852h47.652c3.1875 0 5.7812-2.5938 5.7812-5.7812 0-3.1914-2.5938-5.7852-5.7812-5.7852h-47.648zm47.652 23.375h-47.652c-9.6953 0-17.59-7.8906-17.59-17.59 0.003906-9.6992 7.8906-17.59 17.59-17.59h47.652c9.7109 0 17.586 7.8945 17.586 17.59 0 9.6992-7.8828 17.594-17.586 17.59z"></path>
  <path d="m216.41 517.95c-3.1875 0-5.7812 2.5938-5.7812 5.7852 0.003907 3.1875 2.5938 5.7852 5.7812 5.7852h47.652c3.1875 0 5.7812-2.5938 5.7812-5.7812 0-3.1914-2.5938-5.7812-5.7812-5.7812h-47.648zm47.652 23.375h-47.652c-9.6953 0-17.59-7.8906-17.59-17.59 0.003906-9.6992 7.8906-17.59 17.59-17.59h47.652c9.7109 0 17.586 7.8906 17.586 17.59s-7.8828 17.59-17.586 17.59z"></path>
  <path d="m620.43 608.09h-121.34c-3.2578 0-5.9023-2.6406-5.9023-5.9062 0.003906-3.2617 2.6445-5.9023 5.9023-5.9023h115.44v-240.38h-115.44c-3.2578 0-5.9023-2.6445-5.9023-5.9023 0.003906-3.2617 2.6445-5.9023 5.9023-5.9023h121.34c3.2617 0 5.9023 2.6445 5.9023 5.9062v252.19c0 3.2617-2.6445 5.9062-5.9023 5.9062z"></path>
  <path d="m620.43 355.9c-0.77734 0-1.5586-0.15234-2.3164-0.47266l-121.34-51.676c-3.0039-1.2773-4.3984-4.7461-3.1172-7.7461s4.7461-4.3945 7.75-3.1172l121.34 51.676c2.9922 1.2734 4.3867 4.7461 3.1172 7.7461-0.96094 2.2461-3.1445 3.5938-5.4297 3.5938z"></path>
  <path d="m535.93 422.66c-3.1875 0-5.7812 2.5938-5.7812 5.7852 0.003907 3.1875 2.5938 5.7812 5.7812 5.7812h47.652c3.1992 0 5.7891-2.5938 5.7891-5.7812 0.003906-3.1914-2.5938-5.7852-5.793-5.7852h-47.652zm47.652 23.375h-47.652c-9.6953 0-17.59-7.8906-17.59-17.59 0.003906-9.6992 7.8906-17.59 17.59-17.59h47.652c9.7109 0 17.598 7.8945 17.598 17.594 0.003907 9.6992-7.8906 17.59-17.598 17.59z"></path>
  <path d="m535.93 470.3c-3.1875 0-5.7812 2.5977-5.7812 5.7852 0.003907 3.1875 2.5938 5.7852 5.7812 5.7852h47.652c3.1992 0 5.7891-2.5938 5.7891-5.7812 0.003906-3.1914-2.5938-5.7852-5.793-5.7852h-47.652zm47.652 23.375h-47.652c-9.6953 0-17.59-7.8906-17.59-17.59 0.003906-9.6992 7.8906-17.59 17.59-17.59h47.652c9.7109 0 17.598 7.8945 17.598 17.59 0.003907 9.6992-7.8906 17.594-17.598 17.59z"></path>
  <path d="m535.93 517.95c-3.1875 0-5.7812 2.5938-5.7812 5.7852 0.003907 3.1875 2.5938 5.7852 5.7812 5.7852h47.652c3.1992 0 5.7891-2.5938 5.7891-5.7812 0.003906-3.1914-2.5938-5.7812-5.793-5.7812h-47.652zm47.652 23.375h-47.652c-9.6953 0-17.59-7.8906-17.59-17.59 0.003906-9.6992 7.8906-17.59 17.59-17.59h47.652c9.7109 0 17.598 7.8906 17.598 17.59 0.003907 9.6992-7.8906 17.59-17.598 17.59z"></path>
  <path d="m443.31 326.45c0.76953 0 1.5273 0.14844 2.2539 0.44922l12.508 5.1641-1.0469-13.488c-0.12109-1.5547 0.37891-3.0977 1.3945-4.2852l8.7773-10.301-13.148-3.1719c-1.5273-0.36719-2.832-1.3203-3.6523-2.6484l-7.082-11.531-7.082 11.531c-0.82031 1.3281-2.1367 2.2812-3.6523 2.6484l-13.152 3.1719 8.7773 10.297c1.0156 1.1875 1.5156 2.7305 1.3906 4.2852l-1.043 13.488 12.504-5.1641c0.73047-0.30078 1.4844-0.44531 2.2539-0.44922zm21.395 20.641c-0.76953 0-1.5312-0.14844-2.2578-0.44922l-19.137-7.9023-19.137 7.9023c-1.8945 0.78516-4.0586 0.52344-5.7227-0.67969-1.6602-1.207-2.582-3.1875-2.418-5.2344l1.6016-20.641-13.434-15.758c-1.332-1.5625-1.7539-3.7031-1.1172-5.6523 0.63672-1.9531 2.2344-3.4336 4.2227-3.9141l20.133-4.8555 10.836-17.641c1.0742-1.7461 2.9805-2.8125 5.0312-2.8125 2.0547 0 3.957 1.0664 5.0312 2.8125l10.836 17.641 20.117 4.8555c2.0039 0.48047 3.5977 1.9648 4.2344 3.918 0.63672 1.9492 0.21484 4.0938-1.1172 5.6523l-13.426 15.758 1.5977 20.641c0.15625 2.0469-0.75781 4.0273-2.418 5.2344-1.0234 0.74609-2.2461 1.125-3.4609 1.1289z"></path>
  <path d="m332.82 303.98 8.7734 10.297c1.0156 1.1875 1.5039 2.7305 1.3906 4.2852l-1.0469 13.488 12.504-5.1641c1.4492-0.59375 3.0664-0.59766 4.5 0l12.508 5.1641-1.0469-13.488c-0.10938-1.5547 0.37891-3.0977 1.3945-4.2852l8.7773-10.301-13.152-3.1719c-1.5156-0.36719-2.832-1.3203-3.6523-2.6484l-7.0703-11.531-7.082 11.531c-0.82031 1.3281-2.1328 2.2812-3.6523 2.6484l-13.148 3.1719zm2.4922 43.105c-1.2305 0-2.4531-0.38281-3.4766-1.1289-1.6602-1.207-2.5742-3.1875-2.418-5.2344l1.6133-20.641-13.426-15.758c-1.332-1.5625-1.7695-3.7031-1.1328-5.6523 0.63672-1.9531 2.2344-3.4336 4.2344-3.9141l20.133-4.8555 10.836-17.641c1.0781-1.7461 2.9727-2.8125 5.0312-2.8125 2.0547 0 3.957 1.0664 5.0234 2.8125l10.844 17.641 20.125 4.8555c1.9961 0.48047 3.5938 1.9648 4.2305 3.918 0.63672 1.9492 0.20312 4.0938-1.1289 5.6523l-13.426 15.758 1.6094 20.641c0.15234 2.0469-0.76172 4.0273-2.4219 5.2344-1.6602 1.207-3.8242 1.4648-5.7305 0.67969l-19.125-7.9023-19.137 7.9023c-0.72656 0.30078-1.4961 0.44922-2.25 0.44922z"></path>
  <path d="m419.43 374.37 8.7773 10.301c1.0156 1.1875 1.5156 2.7305 1.3906 4.2852l-1.043 13.488 12.504-5.1641c1.4492-0.59375 3.0625-0.59375 4.5078 0l12.508 5.1641-1.0469-13.488c-0.12109-1.5586 0.37891-3.0977 1.3945-4.2852l8.7773-10.301-13.148-3.1719c-1.5273-0.36328-2.832-1.3164-3.6523-2.6484l-7.082-11.531-7.082 11.527c-0.82031 1.332-2.1367 2.2852-3.6523 2.6484l-13.152 3.1719zm45.277 43.105c-0.76953 0-1.5312-0.14453-2.2578-0.44531l-19.137-7.9023-19.137 7.9023c-1.8945 0.78125-4.0586 0.52734-5.7227-0.67969-1.6602-1.207-2.582-3.1875-2.418-5.2344l1.6016-20.641-13.434-15.758c-1.332-1.5625-1.7539-3.6992-1.1172-5.6523s2.2344-3.4336 4.2227-3.9141l20.133-4.8555 10.836-17.641c1.0742-1.75 2.9805-2.8125 5.0312-2.8125 2.0547 0 3.957 1.0664 5.0312 2.8125l10.836 17.641 20.117 4.8555c2.0039 0.48047 3.5977 1.9648 4.2344 3.9141 0.63672 1.9492 0.21484 4.0938-1.1172 5.6523l-13.426 15.758 1.5977 20.641c0.15625 2.0469-0.75781 4.0273-2.418 5.2344-1.0234 0.74219-2.2461 1.125-3.4609 1.125z"></path>
  <path d="m332.82 374.37 8.7734 10.301c1.0156 1.1875 1.5039 2.7305 1.3906 4.2852l-1.0469 13.488 12.504-5.1641c1.4492-0.59375 3.0664-0.59375 4.5 0l12.508 5.1641-1.0469-13.488c-0.10938-1.5586 0.37891-3.0977 1.3945-4.2852l8.7773-10.301-13.152-3.1719c-1.5156-0.36328-2.832-1.3164-3.6523-2.6484l-7.0703-11.531-7.082 11.527c-0.82031 1.332-2.1328 2.2852-3.6523 2.6484l-13.148 3.1719zm2.4922 43.105c-1.2305 0-2.4531-0.38281-3.4766-1.125-1.6602-1.207-2.5742-3.1875-2.418-5.2344l1.6133-20.641-13.426-15.758c-1.332-1.5625-1.7695-3.6992-1.1328-5.6523s2.2344-3.4336 4.2344-3.9141l20.133-4.8555 10.836-17.641c1.0781-1.75 2.9727-2.8125 5.0312-2.8125 2.0547 0 3.957 1.0664 5.0234 2.8125l10.844 17.641 20.125 4.8555c1.9961 0.48047 3.5938 1.9648 4.2305 3.9141 0.63672 1.9492 0.20312 4.0938-1.1289 5.6523l-13.426 15.758 1.6094 20.641c0.15234 2.0469-0.76172 4.0273-2.4219 5.2344-1.6602 1.2031-3.8242 1.4609-5.7305 0.67969l-19.125-7.9023-19.137 7.9023c-0.72656 0.30078-1.4961 0.44922-2.2539 0.44922h0.003906z"></path>
  <path d="m376.12 245.86 8.7734 10.297c1.0156 1.1875 1.5156 2.7305 1.3906 4.2852l-1.043 13.488 12.504-5.168c1.4492-0.59375 3.0625-0.59375 4.5078 0.003906l12.508 5.1641-1.043-13.492c-0.125-1.5586 0.375-3.0977 1.3789-4.2852l8.7852-10.297-13.16-3.1719c-1.5195-0.36719-2.832-1.3164-3.6406-2.6484l-7.082-11.531-7.082 11.527c-0.82031 1.332-2.1367 2.2852-3.6523 2.6484l-13.148 3.1719zm45.262 43.102c-0.76172 0-1.5312-0.14453-2.25-0.44531l-19.137-7.9023-19.137 7.9023c-1.8945 0.78125-4.0703 0.52344-5.7305-0.67969-1.6602-1.207-2.5742-3.1875-2.4102-5.2344l1.6016-20.645-13.434-15.758c-1.3281-1.5625-1.7539-3.7031-1.125-5.6523 0.63672-1.9531 2.2461-3.4336 4.2344-3.9141l20.133-4.8594 10.836-17.637c1.0742-1.75 2.9805-2.8125 5.0312-2.8125 2.0547 0 3.957 1.0664 5.0352 2.8125l10.836 17.637 20.121 4.8555c2 0.48047 3.5977 1.9648 4.2344 3.9141 0.63672 1.9492 0.20703 4.0938-1.1289 5.6523l-13.414 15.758 1.6016 20.641c0.15234 2.0469-0.76172 4.0273-2.4219 5.2344-1.0234 0.74219-2.2461 1.125-3.4766 1.1289l0.003907-0.003907z"></path>
 </g>

      </g>
      </svg>