<svg id="svg" fill="#000000" stroke="#000000" width="200px" height="200px" version="1.1" viewBox="144 144 512 512" xmlns="http://www.w3.org/2000/svg">
    <g id="IconSvg_bgCarrier" stroke-width="0"></g>
    <g id="IconSvg_tracerCarrier" stroke-linecap="round" stroke-linejoin="round" stroke="#CCCCCC"></g>
     <g id="IconSvg_iconCarrier">
      <g xmlns="http://www.w3.org/2000/svg">
  <path d="m414.05 439.55h15.668c2.7188 0 4.9219-2.2031 4.9219-4.9219s-2.2031-4.9219-4.9219-4.9219h-7.8828v-6.2422c0-2.7188-2.2031-4.9219-4.9219-4.9219s-4.9219 2.2031-4.9219 4.9219v6.4023c-7.2227 1.0039-12.805 7.207-12.805 14.699 0 8.1914 6.6641 14.859 14.859 14.859h5.7344c2.7656 0 5.0156 2.25 5.0156 5.0195 0 2.7695-2.25 5.0195-5.0156 5.0195h-15.672c-2.7188 0-4.9219 2.2031-4.9219 4.9219s2.2031 4.9219 4.9219 4.9219h7.8867v6.2461c0 2.7188 2.2031 4.9219 4.9219 4.9219s4.9219-2.2031 4.9219-4.9219v-6.4062c7.2188-1.0039 12.805-7.207 12.805-14.699 0-8.1914-6.6641-14.859-14.855-14.859h-5.7344c-2.7695 0-5.0195-2.25-5.0195-5.0195-0.003906-2.7695 2.25-5.0195 5.0156-5.0195z"></path>
  <path d="m416.92 407.38c-25.992 0-47.133 21.145-47.133 47.133 0 25.988 21.145 47.133 47.133 47.133 25.992 0 47.133-21.145 47.133-47.133 0.003907-25.988-21.141-47.133-47.133-47.133zm0 84.43c-20.562 0-37.293-16.73-37.293-37.293s16.73-37.293 37.293-37.293 37.293 16.73 37.293 37.293c0.003906 20.562-16.73 37.293-37.293 37.293z"></path>
  <path d="m488.35 379.01h-12.312v-10.219c8.6836-0.28516 15.664-7.4219 15.664-16.172v-9.207c0-8.9336-7.2656-16.199-16.199-16.199h-151.02c-8.9336 0-16.199 7.2656-16.199 16.199v9.207c0 8.7539 6.9844 15.891 15.672 16.172v10.215h-12.312c-23.445 0-42.52 19.074-42.52 42.52l0.003906 181.73c0 23.445 19.074 42.52 42.52 42.52h176.71c23.445 0 42.52-19.074 42.52-42.52v-181.72c0-23.445-19.074-42.52-42.52-42.52zm-170.23-26.387v-9.207c0-3.5078 2.8516-6.3594 6.3594-6.3594h151.02c3.5078 0 6.3594 2.8516 6.3594 6.3594v9.207c0 3.5078-2.8516 6.3594-6.3594 6.3594h-151.02c-3.5039 0-6.3594-2.8555-6.3594-6.3594zm148.08 16.199v10.188h-132.41v-10.188zm9.7656 267.11h-67.512c-1.9531 0-3.5391-1.5859-3.5391-3.5391s1.5859-3.543 3.5391-3.543h16.898 0.019531 50.602c1.9492 0.003907 3.5312 1.5898 3.5312 3.5391 0 1.9531-1.5859 3.543-3.5391 3.543zm0.019531-16.922h-0.019531-50.602c-1.9492-0.007813-3.5312-1.5898-3.5312-3.5391 0-1.9531 1.5898-3.5391 3.5391-3.5391h67.512c1.9531 0 3.5391 1.5859 3.5391 3.5391s-1.5859 3.5391-3.5391 3.5391zm-50.613-57.836h67.512c1.9531 0 3.5391 1.5898 3.5391 3.5391 0 1.9531-1.5859 3.5391-3.5391 3.5391h-30.605-0.019531-36.895c-1.9492-0.007812-3.5312-1.5898-3.5312-3.5391 0-1.9492 1.5898-3.5391 3.5391-3.5391zm-16.918-9.8398c-1.9531 0-3.5391-1.5898-3.5391-3.5391 0-1.9531 1.5859-3.5391 3.5391-3.5391h67.512c1.9531 0 3.5391 1.5859 3.5391 3.5391s-1.5898 3.5391-3.5391 3.5391zm16.902 26.758h0.019531 36.895c1.9492 0.003906 3.5312 1.5898 3.5312 3.5391 0 1.9531-1.5859 3.5391-3.5391 3.5391h-11.57-0.019531-55.93c-1.9492-0.003906-3.5312-1.5898-3.5312-3.5391 0-1.9531 1.5898-3.543 3.5391-3.543zm-30.625 16.922h0.019531 55.93c1.9492 0.007813 3.5312 1.5898 3.5312 3.5391 0 1.9531-1.5898 3.543-3.5391 3.543h-25.297l-42.215-0.003906c-1.9531 0-3.5391-1.5898-3.5391-3.543s1.5859-3.5391 3.5391-3.5391zm126.3 8.2383c0 17.848-14.387 32.391-32.168 32.664 0.30859-1.125 0.48828-2.3047 0.48828-3.5273 0-1.2266-0.17969-2.4102-0.48828-3.5391h4.0312c7.3789 0 13.379-6.0039 13.379-13.379 0-7.3789-6.0039-13.379-13.379-13.379h-29.328c0.3125-1.1289 0.49219-2.3125 0.49219-3.543 0-1.25-0.18359-2.457-0.50781-3.6016 6.7773-0.64844 12.098-6.3711 12.098-13.312 0-1.2266-0.17969-2.4102-0.48828-3.5391l17.727-0.003906c7.3789 0 13.379-6.0039 13.379-13.379 0-7.3789-6.0039-13.379-13.379-13.379h-4.0312c0.30859-1.1289 0.48828-2.3125 0.48828-3.5391 0-7.3789-6.0039-13.379-13.379-13.379h-67.512c-7.3789 0-13.379 6.0039-13.379 13.379 0 7.3789 6.0039 13.379 13.379 13.379h4.0312c-0.30859 1.1289-0.48828 2.3125-0.48828 3.5391 0 1.2266 0.17969 2.4102 0.48828 3.5391h-17.734c-7.3789 0-13.379 6.0039-13.379 13.383 0 1.25 0.18359 2.457 0.50781 3.6016-6.7773 0.64844-12.094 6.3711-12.094 13.312 0 7.3789 6.0039 13.383 13.379 13.383h29.324c-0.30859 1.1289-0.48828 2.3125-0.48828 3.5391 0 1.2266 0.17969 2.4102 0.48828 3.5391h-4.0312c-7.3789 0-13.379 6.0039-13.379 13.383 0 1.2266 0.17969 2.4102 0.49219 3.5391h-83.926c-18.02 0-32.68-14.66-32.68-32.68l0.003906-181.72c0-18.02 14.66-32.68 32.68-32.68h176.71c18.02 0 32.68 14.66 32.68 32.68z"></path>
  <path d="m371.71 498.32-61.609-27.605c-1.7344-0.77734-3.5742-1.1719-5.4688-1.1719-5.2656 0-10.062 3.1055-12.215 7.9102-1.4609 3.2617-1.5625 6.8984-0.28906 10.234 1.2734 3.3398 3.7695 5.9844 7.0312 7.4414l61.609 27.605c1.7344 0.77734 3.5742 1.1719 5.4648 1.1719 5.2656 0 10.062-3.1055 12.215-7.9141 3.0156-6.7266-0.007813-14.656-6.7383-17.672zm-2.2422 13.656c-0.57031 1.2734-1.8398 2.0938-3.2344 2.0938-0.49609 0-0.98047-0.10547-1.4414-0.3125l-61.613-27.605c-0.85938-0.38672-1.5195-1.0859-1.8594-1.9688-0.33594-0.88281-0.30859-1.8438 0.078125-2.707 0.57031-1.2734 1.8398-2.0938 3.2344-2.0938 0.49609 0 0.98047 0.10547 1.4453 0.3125l61.613 27.605c1.7734 0.79688 2.5742 2.8945 1.7773 4.6758z"></path>
  <path d="m362.2 555.78c-2.2383 0-4.4609 0.57031-6.4297 1.6523l-59.188 32.477c-6.4688 3.5508-8.8398 11.699-5.293 18.168 2.3477 4.2852 6.8477 6.9453 11.734 6.9453 2.2383 0 4.4609-0.57031 6.4297-1.6523l59.188-32.477c6.4688-3.5508 8.8438-11.699 5.293-18.164-2.3477-4.2891-6.8438-6.9492-11.734-6.9492zm1.7109 16.484-59.188 32.477c-0.53125 0.29297-1.1016 0.4375-1.6953 0.4375-1.2969 0-2.4883-0.70312-3.1094-1.8359-0.94141-1.7109-0.3125-3.8672 1.3984-4.8086l59.188-32.477c0.53125-0.29297 1.1016-0.4375 1.6953-0.4375 1.2969 0 2.4883 0.70312 3.1094 1.8398 0.94141 1.7109 0.3125 3.8633-1.3984 4.8047z"></path>
  <path d="m397.12 277.65h5.7344c2.7656 0 5.0156 2.2539 5.0156 5.0195s-2.25 5.0195-5.0156 5.0195h-15.672c-2.7188 0-4.9219 2.2031-4.9219 4.9219s2.2031 4.9219 4.9219 4.9219h7.8867v6.2461c0 2.7188 2.2031 4.9219 4.9219 4.9219s4.9219-2.2031 4.9219-4.9219v-6.4062c7.2188-1.0039 12.801-7.2031 12.801-14.699 0-8.1953-6.6641-14.859-14.855-14.859h-5.7344c-2.7695 0-5.0195-2.25-5.0195-5.0195s2.2539-5.0195 5.0195-5.0195h15.668c2.7188 0 4.9219-2.2031 4.9219-4.9219s-2.2031-4.9219-4.9219-4.9219h-7.8828v-6.2422c0-2.7188-2.2031-4.9219-4.9219-4.9219s-4.9219 2.2031-4.9219 4.9219v6.4023c-7.2227 1.0039-12.809 7.207-12.809 14.703 0.003906 8.1914 6.668 14.855 14.863 14.855z"></path>
  <path d="m400 319.87c25.988 0 47.133-21.145 47.133-47.133 0-25.992-21.145-47.133-47.133-47.133-25.992 0-47.133 21.145-47.133 47.133-0.003906 25.988 21.141 47.133 47.133 47.133zm0-84.43c20.562 0 37.293 16.73 37.293 37.293 0 20.566-16.73 37.293-37.293 37.293-20.566 0-37.293-16.73-37.293-37.293-0.003906-20.562 16.727-37.293 37.293-37.293z"></path>
  <path d="m399.99 217.4c2.7188 0 4.9219-2.2031 4.9219-4.9219v-53.332c0-2.7188-2.2031-4.9219-4.9219-4.9219s-4.9219 2.2031-4.9219 4.9219v53.332c0.003906 2.7188 2.207 4.9219 4.9219 4.9219z"></path>
  <path d="m379.53 223.04c2.7188 0 4.9219-2.2031 4.9219-4.9219l-0.003907-40.461c0-2.7188-2.2031-4.9219-4.9219-4.9219s-4.9219 2.2031-4.9219 4.9219l0.003907 40.465c0 2.7148 2.2031 4.918 4.9219 4.918z"></path>
  <path d="m359.06 234.49c2.7188 0 4.9219-2.2031 4.9219-4.9219l-0.003906-36.496c0-2.7188-2.2031-4.9219-4.9219-4.9219s-4.9219 2.2031-4.9219 4.9219v36.496c0.003906 2.7188 2.207 4.9219 4.9258 4.9219z"></path>
  <path d="m440.92 234.49c2.7188 0 4.9219-2.2031 4.9219-4.9219l-0.003906-36.496c0-2.7188-2.2031-4.9219-4.9219-4.9219s-4.9219 2.2031-4.9219 4.9219v36.496c0.003906 2.7188 2.207 4.9219 4.9258 4.9219z"></path>
  <path d="m420.45 223.04c2.7188 0 4.9219-2.2031 4.9219-4.9219v-40.461c0-2.7188-2.2031-4.9219-4.9219-4.9219s-4.9219 2.2031-4.9219 4.9219l0.003906 40.465c0 2.7148 2.2031 4.918 4.918 4.918z"></path>
 </g>

      </g>
      </svg>