<svg id="svg" fill="#000000" stroke="#000000" width="200px" height="200px" version="1.1" viewBox="144 144 512 512" xmlns="http://www.w3.org/2000/svg">
    <g id="IconSvg_bgCarrier" stroke-width="0"></g>
    <g id="IconSvg_tracerCarrier" stroke-linecap="round" stroke-linejoin="round" stroke="#CCCCCC"></g>
     <g id="IconSvg_iconCarrier">
      <g xmlns="http://www.w3.org/2000/svg">
  <path d="m479.16 263.91c3.0508 3.1016 6.0039 6.25 8.8555 9.543 1.3281 1.5234 2.6094 3.1016 3.8359 4.6758 1.5234 1.918-0.83594-1.1328 0.64063 0.83594 0.6875 0.93359 1.4258 1.8711 2.1172 2.8555 4.8203 6.6914 9.1523 13.777 12.941 21.156 0.88672 1.7227 1.7227 3.4922 2.5586 5.2656 0.39453 0.83594 0.78906 1.6719 1.1328 2.5078 0.24609 0.54297 0.44141 1.0312 0.6875 1.5742 0.73828 1.6719-0.49219-1.2773-0.050782-0.14844 1.4766 3.6914 2.9023 7.4297 4.1836 11.219 2.5078 7.625 4.4297 15.5 5.8047 23.418 0.14844 0.98438 0.34375 2.0156 0.49219 3 0.097656 0.73828 0.34375 3.5898 0.097656 0.73828 0.14844 2.0156 0.49219 4.0352 0.6875 6.0508 0.39453 4.0352 0.58984 8.1172 0.64062 12.152 0.050782 3.9375 0 7.8711-0.24609 11.809-0.097656 1.918-0.24609 3.8359-0.44141 5.7578-0.14844 1.8203 0 4.3789-0.6875 6.0508 0.64062-1.5742 0.19531-1.5234 0.097656-0.58984-0.097656 0.54297-0.14844 1.1328-0.24609 1.6719-0.14844 0.98438-0.29688 2.0156-0.49219 3-0.34375 2.0156-0.73828 3.9844-1.1328 6.0039-0.83594 3.8867-1.7695 7.7227-2.9023 11.562-1.082 3.8359-2.3633 7.625-3.7383 11.367-0.6875 1.8711-1.2773 3.9844-2.2617 5.7578 0.097656-0.19531 0.88672-2.0664 0.19531-0.44141-0.19531 0.44141-0.34375 0.83594-0.54297 1.2773-0.44141 1.0312-0.93359 2.1172-1.4258 3.1484-3.4453 7.3789-7.4297 14.465-11.906 21.207-1.1797 1.7695-2.3633 3.4922-3.6406 5.2148-0.54297 0.78906-1.1328 1.5234-1.6719 2.2617-0.24609 0.29688-0.73828 0.83594-0.83594 1.1328 0.73828-0.93359 0.88672-1.1328 0.44141-0.58984-0.19531 0.29688-0.44141 0.54297-0.64062 0.83594-2.6094 3.2969-5.3125 6.4453-8.168 9.543-5.8047 6.25-12.102 12.055-18.793 17.367-0.73828 0.58984-0.93359 0.19531 0.29688-0.24609-0.29688 0.097656-0.83594 0.64062-1.1328 0.83594-0.83594 0.64062-1.7227 1.2773-2.5586 1.8711-1.7227 1.2305-3.4453 2.4609-5.2148 3.5898-3.3945 2.2617-6.8867 4.3789-10.43 6.3477-3.6406 2.0156-7.332 3.9375-11.121 5.6562-0.83594 0.39453-1.6719 0.73828-2.5078 1.1328-0.44141 0.19531-0.83594 0.34375-1.2773 0.54297-2.1172 0.93359 1.5234-0.58984 0.14844-0.050781-1.918 0.78906-3.8359 1.5234-5.7578 2.2617-7.5781 2.8047-15.352 5.0195-23.223 6.6406-1.8711 0.39453-3.7891 0.73828-5.6562 1.082-0.88672 0.14844-1.7695 0.29688-2.6562 0.44141-0.54297 0.097657-1.1328 0.14844-1.6719 0.24609-1.8711 0.29688 1.5234-0.19531 0.24609-0.050781-3.9375 0.44141-7.8242 0.83594-11.809 1.082-7.9688 0.44141-16.039 0.29688-23.961-0.49219-1.918-0.19531-3.7891-0.49219-5.707-0.64063 2.8555 0.24609 0 0-0.73828-0.097656-1.1328-0.14844-2.2148-0.34375-3.3438-0.54297-4.0352-0.6875-8.0195-1.5234-11.957-2.5078-3.8359-0.98438-7.6758-2.0664-11.465-3.3438-3.6914-1.2305-7.8242-2.3125-11.219-4.1836 2.3633 1.3281-0.49219-0.19531-1.1328-0.49219-0.93359-0.44141-1.8711-0.83594-2.8047-1.2773-1.8711-0.88672-3.7383-1.7695-5.5586-2.7539-3.5898-1.8711-7.1328-3.8359-10.629-5.9531-3.4922-2.1641-6.8867-4.4297-10.234-6.8398-0.83594-0.64062-1.7227-1.2773-2.5586-1.918-0.24609-0.19531-1.4766-1.1328-0.39453-0.29688 1.2773 0.98438-0.58984-0.49219-0.6875-0.54297-1.6719-1.3281-3.3438-2.707-4.9688-4.082-6.3945-5.5117-12.348-11.512-17.859-17.91-1.3789-1.625-2.7539-3.2969-4.082-4.9688-0.29688-0.39453-1.2305-1.3789 0.24609 0.29688-0.29688-0.34375-0.58984-0.73828-0.83594-1.1328-0.6875-0.93359-1.4258-1.8711-2.1172-2.8555-2.4102-3.3438-4.6758-6.7422-6.7891-10.234-2.1172-3.4453-4.082-6.9883-5.9023-10.629-0.93359-1.8711-1.8203-3.6914-2.707-5.6094-0.39453-0.83594-0.73828-1.6719-1.1328-2.5078-0.19531-0.44141-0.34375-0.83594-0.54297-1.2773-0.93359-2.2148 0.83594 2.0156-0.050782-0.19531-2.9531-7.4297-5.5117-14.957-7.4297-22.73-0.98438-3.9375-1.8203-7.9688-2.4609-11.957-0.14844-0.88672-0.29688-1.7695-0.44141-2.6562-0.050781-0.44141-0.14844-0.88672-0.19531-1.3281-0.34375-2.2617 0.19531 1.7695 0.050781 0.24609-0.24609-2.0156-0.49219-4.0352-0.64062-6.0508-0.6875-7.9688-0.83594-15.988-0.39453-24.008 0.097656-1.918 0.24609-3.8359 0.44141-5.7578 0.097656-0.88672 0.19531-1.8203 0.29688-2.707 0.050781-0.54297 0.14844-1.1328 0.19531-1.6719 0.050781-0.34375 0.24609-2.3633 0.097656-0.6875-0.19531 1.7227 0.097656-0.49219 0.097656-0.6875 0.050781-0.44141 0.14844-0.88672 0.19531-1.3281 0.14844-0.88672 0.29688-1.7695 0.44141-2.6562 0.34375-2.0156 0.73828-3.9844 1.1328-6.0039 1.6719-7.8711 3.9375-15.645 6.7422-23.223 0.6875-1.8203 1.5742-3.5898 2.1172-5.4102-0.78906 2.4609 0.050782-0.14844 0.34375-0.78906 0.44141-1.0312 0.93359-2.1172 1.4258-3.1484 1.7695-3.7891 3.6406-7.4766 5.707-11.07 2.0156-3.543 4.1328-7.0352 6.3945-10.43 1.1328-1.6719 2.2617-3.2969 3.4453-4.9219 0.54297-0.78906 1.1328-1.5234 1.6719-2.2617 0.050781-0.097656 1.4766-1.9688 0.54297-0.6875-0.88672 1.1797 0.34375-0.44141 0.54297-0.6875 5.3125-6.6914 11.168-12.988 17.465-18.746 3.1016-2.8555 6.2969-5.5117 9.543-8.1172 1.8203-1.4766-1.2305 0.93359 0 0 0.39453-0.29688 0.73828-0.58984 1.1328-0.83594 0.83594-0.64062 1.7227-1.2773 2.5586-1.8711 1.7227-1.2305 3.4453-2.4102 5.2148-3.5898 6.7891-4.4766 13.875-8.4141 21.254-11.809 0.93359-0.44141 1.8711-0.83594 2.8047-1.2773 0.44141-0.19531 0.83594-0.34375 1.2773-0.54297 1.3789-0.58984-2.2617 0.93359-0.14844 0.050781 1.918-0.73828 3.8359-1.5234 5.7578-2.2148 3.7383-1.3789 7.5273-2.6094 11.367-3.6914 3.8359-1.082 7.6758-2.0156 11.562-2.8555 2.0156-0.39453 3.9844-0.78906 6.0039-1.1328 0.88672-0.14844 1.7695-0.29688 2.6562-0.44141 0.44141-0.050782 0.88672-0.14844 1.3281-0.19531 2.3633-0.34375-2.3125 0.29688 0.050781 0 7.8711-0.93359 15.742-1.3789 23.617-1.2305 4.0352 0.097657 8.1172 0.34375 12.152 0.6875 0.88672 0.097657 1.8203 0.19531 2.707 0.29688 0.44141 0.050781 0.88672 0.097656 1.3281 0.14844 0.19531 0 2.4609 0.24609 0.6875 0.097656-1.5234-0.14844 0 0 0.39453 0.050781 0.44141 0.050782 0.88672 0.14844 1.3281 0.19531 1.1328 0.14844 2.2148 0.34375 3.3438 0.54297 7.9219 1.3789 15.742 3.3438 23.418 5.9023 1.8203 0.58984 3.6914 1.2773 5.4609 1.918 0.83594 0.34375 1.7227 0.64062 2.5586 0.98438 0.54297 0.19531 1.082 0.44141 1.5742 0.64062 0.29688 0.097656 2.1641 0.88672 0.73828 0.29688-1.5234-0.58984 0.58984 0.24609 0.73828 0.29688 0.44141 0.19531 0.83594 0.34375 1.2773 0.54297 0.83594 0.39453 1.6719 0.73828 2.5078 1.1328 1.8711 0.88672 3.7383 1.7695 5.5586 2.7539 7.3789 3.7891 14.414 8.168 21.105 13.039 0.83594 0.64062 1.7227 1.2773 2.5586 1.918 0.39453 0.29688 1.5234 1.0312-0.29688-0.24609 0.39453 0.24609 0.73828 0.58984 1.1328 0.88672 1.5742 1.2773 3.1484 2.5586 4.6758 3.8867 3.1055 2.6992 6.207 5.5547 9.1562 8.5547 3.6406 3.6406 10.332 3.9375 13.922 0 3.5898-3.9375 3.8867-10.035 0-13.922-24.895-24.797-57.27-41.918-92.004-47.773-34.832-5.8555-70.355-1.1797-102.43 13.629-32.324 14.906-59.777 40.641-77.145 71.684-16.777 30.012-24.402 65.238-21.105 99.531 3.3945 35.621 17.516 69.176 40.785 96.48 22.926 26.914 54.516 46.395 88.855 54.859 33.406 8.2148 69.422 6.3945 101.6-5.7578 34.094-12.891 63.418-36.211 83.59-66.617 19.09-28.781 28.98-63.617 28.191-98.156-0.78906-34.637-12.102-69.125-32.621-97.07-5.4102-7.332-11.266-14.316-17.664-20.762-3.6406-3.6406-10.332-3.8867-13.922 0-3.6367 3.8867-3.9336 9.9883-0.046875 13.875z"></path>
  <path d="m597.49 583.56c-11.758-11.758-23.52-23.52-35.277-35.277-18.746-18.746-37.492-37.492-56.234-56.234-4.2812-4.2812-8.6094-8.6094-12.891-12.891-3.6406-3.6406-10.332-3.9375-13.922 0-3.5898 3.9375-3.8867 10.035 0 13.922 11.758 11.758 23.52 23.52 35.277 35.277 18.746 18.746 37.492 37.492 56.234 56.234l12.891 12.891c3.6406 3.6406 10.332 3.9375 13.922 0 3.5898-3.9336 3.8867-10.035 0-13.922z"></path>
  <path d="m372.15 333.23c-1.9688 0-3.9375 0.050781-5.9023-0.050781 0 0-1.2773-0.050782-1.3789-0.14844 0 0 2.5078 0.49219 0.64062 0.050782-0.73828-0.14844-1.5234-0.34375-2.2617-0.54297-0.73828-0.19531-1.4766-0.49219-2.2148-0.6875-1.4258-0.44141 0.44141 0.29688 0.54297 0.24609-0.14844 0.050782-1.0312-0.49219-1.1797-0.54297-1.4766-0.73828-2.7539-1.6719-4.1328-2.5078-0.93359-0.58984 0.78906 0.54297 0.6875 0.54297-0.050781 0.050781-0.83594-0.73828-0.98438-0.83594-0.64062-0.58984-1.2773-1.1797-1.8711-1.8203-0.29688-0.29688-0.58984-0.64062-0.88672-0.98438-0.98438-1.0312 0.050781 0.39453 0.34375 0.49219-0.34375-0.097656-1.1328-1.625-1.2773-1.8711-0.39453-0.64062-0.78906-1.2773-1.1328-1.9688-0.19531-0.39453-0.39453-0.78906-0.58984-1.1797-0.64063-1.1797 0.19531 0.050781 0.19531 0.54297-0.097656-1.4766-1.082-3.2461-1.3789-4.7734-0.44141-2.2617 0 1.4258-0.097656-0.39453-0.050782-0.93359-0.097657-1.8203-0.14844-2.7539v-5.1172c0-0.6875 0-1.4258 0.050781-2.1172 0-0.34375 0.050781-0.6875 0.097657-1.0312 0.097656-1.3789-0.39453 1.918-0.050782 0.58984 0.39453-1.625 0.78906-3.1992 1.2773-4.8203 0.58984-1.8203-0.24609 0.54297-0.24609 0.54297-0.050781-0.097656 0.58984-1.2305 0.54297-1.1797 0.34375-0.6875 0.6875-1.3281 1.082-1.9688 0.39453-0.64062 0.83594-1.2773 1.2305-1.918 0.83594-1.2305-0.39453 0.39453-0.34375 0.44141-0.050781-0.097656 0.73828-0.88672 0.83594-0.98438 0.58984-0.64062 1.1797-1.2773 1.8203-1.8711 0.34375-0.29688 1.8711-2.0664 0.98438-0.88672-0.6875 0.83594-0.39453 0.24609 0.050781 0 0.34375-0.24609 0.6875-0.49219 1.082-0.73828 0.73828-0.49219 1.4766-0.93359 2.2617-1.3281 0.39453-0.19531 0.78906-0.39453 1.1797-0.58984 0.83594-0.44141 0.98438 0.050782-0.54297 0.19531 0.6875-0.050781 1.5234-0.54297 2.1641-0.73828 0.73828-0.24609 1.4766-0.44141 2.2617-0.58984 0.34375-0.050781 1.0312-0.097656 1.3281-0.24609-0.39453 0.24609-2.0156 0.19531-0.58984 0.097656 2.1641-0.14844 4.3281-0.14844 6.543-0.14844 0.73828 0 1.4258 0 2.1172 0.050781 0.34375 0 0.6875 0.050782 1.0312 0.097656 1.3789 0.097657-1.918-0.39453-0.58984-0.050781 1.625 0.39453 3.1992 0.78906 4.8203 1.2773 1.8203 0.58984-0.54297-0.24609-0.54297-0.24609 0.097656-0.050781 1.2305 0.58984 1.1797 0.54297 0.6875 0.34375 1.3281 0.6875 1.9688 1.082s1.2773 0.83594 1.918 1.2305c1.2305 0.83594-0.39453-0.39453-0.44141-0.34375 0.097656-0.050781 0.88672 0.73828 0.98438 0.83594 0.64062 0.58984 1.2773 1.1797 1.8711 1.8203 0.29687 0.34375 2.0664 1.8711 0.88672 0.98438-0.83594-0.6875-0.24609-0.39453 0 0.050781 0.24609 0.34375 0.49219 0.6875 0.73828 1.082 0.49219 0.73828 0.93359 1.4766 1.3281 2.2617 0.19531 0.39453 0.39453 0.78906 0.58984 1.1797 0.44141 0.83594-0.050781 0.98438-0.19531-0.54297 0.050781 0.6875 0.54297 1.5234 0.73828 2.1641 0.24609 0.73828 0.44141 1.4766 0.58984 2.2617 0.050781 0.34375 0.097656 1.0312 0.24609 1.3281-0.24609-0.39453-0.19531-2.0156-0.097656-0.58984 0.14844 2.2148 0.14844 4.4766 0.14844 6.6914 0 1.1797 0 2.4102-0.097656 3.5898-0.050782 0.6875-0.58984 1.4258 0 0.39453 0.097656-0.73828 0.097656-0.83594 0-0.29688-0.050782 0.34375-0.097657 0.64062-0.19531 0.98438-0.19531 0.88672-0.39453 1.7227-0.6875 2.5586-0.14844 0.44141-0.29688 0.83594-0.44141 1.2305-0.49219 1.4766 0.29688-0.39453 0.24609-0.54297 0.14844 0.29688-1.1797 2.3633-1.3281 2.6094-0.44141 0.73828-0.93359 1.4766-1.3789 2.2148-0.29688 0.44141-1.1797 1.082-0.19531 0.29688 1.082-0.88672-0.24609 0.24609-0.49219 0.49219-0.58984 0.64062-1.1797 1.2773-1.8203 1.8711-0.29688 0.29687-0.64062 0.58984-0.98438 0.88672-1.082 1.0312 0.44141-0.14844 0.49219-0.34375-0.19531 0.98438-3.8867 2.4609-4.7227 2.8555-0.39453 0.19531-1.6719 0.54297-0.29688 0.14844 1.5234-0.44141-0.49219 0.14844-0.64062 0.19531-0.83594 0.29688-1.6719 0.54297-2.5586 0.73828-0.44141 0.097656-0.88672 0.19531-1.3281 0.29688-1.3281 0.29688 0.097656-0.097656 0.64062-0.050781-1.1797 0-2.4102 0.24609-3.4922 0.29688-5.1641 0.050781-10.086 4.4766-9.8398 9.8398 0.24609 5.2656 4.3281 9.8906 9.8398 9.8398 9.7891-0.097656 18.992-3.7383 26.273-10.281 7.1836-6.3945 11.219-15.352 12.301-24.797 0.73828-6.2969 0.49219-13.48-1.2305-19.531-2.6562-9.1992-8.6602-17.023-16.68-22.188-13.48-8.7578-34.145-8.2148-47.035 1.3281-7.5273 5.5586-13.332 13.578-15.301 22.828-1.4766 6.9375-1.4766 14.906-0.14844 21.844 1.918 10.137 8.5625 18.992 17.023 24.602 7.4766 4.9688 16.039 6.1992 24.797 6.1992 5.1641 0 10.086-4.5273 9.8398-9.8398-0.24609-5.3672-4.332-9.8438-9.8398-9.8438z"></path>
  <path d="m424.6 400.2v39.656c3.2969-3.2969 6.543-6.543 9.8398-9.8398h-43.148-68.879-15.941c3.2969 3.2969 6.543 6.543 9.8398 9.8398v-33.211-5.8555c0-0.6875 0-1.3281 0.050781-2.0156 0-0.44141 0.050781-0.88672 0.097656-1.3789 0.14844-2.3125-0.54297 2.2148 0.050781-0.050781 0.34375-1.2773 0.58984-2.5586 1.0312-3.8359 0.050782-0.19531 0.14844-0.39453 0.19531-0.64062 0.39453-0.98438 0.29688-0.83594-0.24609 0.54297-0.097656-0.19531 0.73828-1.5234 0.83594-1.7695 0.49219-0.93359 1.082-1.8711 1.6719-2.7539 0.14844-0.19531 0.24609-0.34375 0.39453-0.54297 0.64062-0.83594 0.49219-0.6875-0.34375 0.44141 0-0.050781 0.73828-0.83594 0.83594-0.98438 0.34375-0.39453 2.8047-3.2969 3.2461-3.1484 0 0-2.0156 1.4258-0.44141 0.34375 0.54297-0.34375 1.082-0.73828 1.625-1.082 0.93359-0.58984 1.918-1.0312 2.8555-1.5742 1.9688-1.082-2.0664 0.6875 0.050781-0.050782 0.64062-0.19531 1.2305-0.44141 1.8711-0.64062 0.58984-0.19531 3.5898-1.2305 3.8867-0.88672-0.44141 0.050782-0.83594 0.097657-1.2773 0.14844 0.44141-0.050781 0.88672-0.097656 1.3789-0.14844 0.44141-0.050781 0.93359-0.050781 1.3789-0.050781h0.78906 1.0312 5.1172 17.562 39.164 4.9219 1.2773c0.6875 0 1.3789 0.097657 2.0664 0.097657 2.3125 0.14844-2.1641-0.49219 0.050781 0 1.4258 0.34375 2.8047 0.64062 4.1836 1.082 0.34375 0.097656 1.3789 0.29688 1.5234 0.58984-1.3281-0.58984-1.5234-0.64062-0.54297-0.19531 0.39453 0.19531 0.78906 0.39453 1.1797 0.58984 1.1328 0.64062 2.2148 1.3281 3.2969 2.0664 1.8711 1.2305-1.5742-1.4766 0.050781 0.050781 0.49219 0.44141 0.98438 0.83594 1.4258 1.3281 0.44141 0.44141 0.93359 0.93359 1.3281 1.3789 0.29688 0.34375 0.58984 0.64063 0.83594 0.98438-0.78906-1.082-0.98438-1.2773-0.54297-0.6875 0.73828 1.2305 1.5742 2.3125 2.2617 3.543 0.19531 0.39453 0.39453 0.78906 0.58984 1.1797 0.44141 0.98438 0.39453 0.78906-0.19531-0.54297 0.14844 0.39453 0.29688 0.83594 0.44141 1.2305 0.44141 1.2773 0.73828 2.5586 1.0312 3.8359 0.49219 2.2617-0.097657-2.3125 0.050781 0.050781 0.14453 1.0859 0.24219 1.9727 0.24219 2.9062 0.050782 5.1641 4.4766 10.086 9.8398 9.8398 5.2656-0.24609 9.8906-4.3281 9.8398-9.8398-0.14844-13.234-6.8398-25.043-17.664-32.473-6.8867-4.7227-15.105-6.5938-23.32-6.5938h-36.508c-10.184 0-20.367-0.097656-30.555 0-11.609 0.097656-23.172 5.1641-30.504 14.316-6.1992 7.6758-9.0547 16.582-9.0547 26.422v37.984c0 5.3125 4.5273 9.8398 9.8398 9.8398h43.148 68.879 15.941c5.3125 0 9.8398-4.5273 9.8398-9.8398v-39.656c0-5.1641-4.5273-10.086-9.8398-9.8398-5.3555 0.24609-9.8828 4.3281-9.8828 9.8398z"></path>
 </g>

      </g>
      </svg>