<svg id="svg" fill="#000000" stroke="#000000" width="200px" height="200px" version="1.1" viewBox="144 144 512 512" xmlns="http://www.w3.org/2000/svg">
    <g id="IconSvg_bgCarrier" stroke-width="0"></g>
    <g id="IconSvg_tracerCarrier" stroke-linecap="round" stroke-linejoin="round" stroke="#CCCCCC"></g>
     <g id="IconSvg_iconCarrier">
      <g xmlns="http://www.w3.org/2000/svg">
  <path d="m277.22 301.21h-19.246l19.246 49.785z"></path>
  <path d="m288.94 274.67h-15.871l7.9375 14.773z"></path>
  <path d="m284.78 350.99 19.223-49.773h-19.223z"></path>
  <path d="m312.1 301.21-18.219 47.18 36.445-47.18z"></path>
  <path d="m315.84 293.65h15.859l-7.9297-14.766z"></path>
  <path d="m266.75 278.88-7.9297 14.766h15.863z"></path>
  <path d="m252.49 289.45 7.9336-14.773h-15.871z"></path>
  <path d="m268.14 348.43-18.238-47.219h-18.23z"></path>
  <path d="m550.07 301.21-18.23 47.242 36.484-47.242z"></path>
  <path d="m525.32 293.65h15.859l-7.9297-14.766z"></path>
  <path d="m519 289.45 7.9336-14.773h-15.867z"></path>
  <path d="m522.77 350.99 19.223-49.773h-19.223z"></path>
  <path d="m287.33 293.65h15.859l-7.9297-14.766z"></path>
  <path d="m469.67 301.21 36.449 47.18-18.223-47.18z"></path>
  <path d="m309.52 289.45 7.9336-14.773h-15.871z"></path>
  <path d="m246.2 293.65-7.957-14.777-7.9375 14.777z"></path>
  <path d="m396.22 550.1h7.5586v18.141h-7.5586z"></path>
  <path d="m468.03 568.26v-209.03h-136.07v209.03h42.844v-21.941c0-2.0859 1.6914-3.7773 3.7773-3.7773h42.824c2.0859 0 3.7773 1.6914 3.7773 3.7773v21.938zm-93.758-50.469c0 2.0859-1.6914 3.7773-3.7773 3.7773h-22.375c-2.0859 0-3.7773-1.6914-3.7773-3.7773v-22.367c0-2.0859 1.6914-3.7773 3.7773-3.7773h22.371c2.0859 0 3.7773 1.6914 3.7773 3.7773zm0-56.094c0 2.0859-1.6914 3.7773-3.7773 3.7773h-22.375c-2.0859 0-3.7773-1.6914-3.7773-3.7773v-22.367c0-2.0859 1.6914-3.7773 3.7773-3.7773h22.371c2.0859 0 3.7773 1.6914 3.7773 3.7773zm0-56.094c0 2.0859-1.6914 3.7773-3.7773 3.7773l-22.375 0.003907c-2.0859 0-3.7773-1.6914-3.7773-3.7773v-22.371c0-2.0859 1.6914-3.7773 3.7773-3.7773h22.371c2.0859 0 3.7773 1.6914 3.7773 3.7773zm40.688 112.19c0 2.0859-1.6914 3.7773-3.7773 3.7773h-22.367c-2.0859 0-3.7773-1.6914-3.7773-3.7773v-22.367c0-2.0859 1.6914-3.7773 3.7773-3.7773h22.367c2.0859 0 3.7773 1.6914 3.7773 3.7773zm0-56.094c0 2.0859-1.6914 3.7773-3.7773 3.7773h-22.367c-2.0859 0-3.7773-1.6914-3.7773-3.7773v-22.367c0-2.0859 1.6914-3.7773 3.7773-3.7773h22.367c2.0859 0 3.7773 1.6914 3.7773 3.7773zm0-56.094c0 2.0859-1.6914 3.7773-3.7773 3.7773h-22.367c-2.0859 0-3.7773-1.6914-3.7773-3.7773v-22.371c0-2.0859 1.6914-3.7773 3.7773-3.7773h22.367c2.0859 0 3.7773 1.6914 3.7773 3.7773zm10.766-22.371c0-2.0859 1.6914-3.7773 3.7773-3.7773h22.371c2.0859 0 3.7773 1.6914 3.7773 3.7773v22.371c0 2.0859-1.6914 3.7773-3.7773 3.7773h-22.371c-2.0859 0-3.7773-1.6914-3.7773-3.7773zm0 56.094c0-2.0859 1.6914-3.7773 3.7773-3.7773h22.371c2.0859 0 3.7773 1.6914 3.7773 3.7773v22.367c0 2.0859-1.6914 3.7773-3.7773 3.7773h-22.371c-2.0859 0-3.7773-1.6914-3.7773-3.7773zm0 56.094c0-2.0859 1.6914-3.7773 3.7773-3.7773h22.371c2.0859 0 3.7773 1.6914 3.7773 3.7773v22.367c0 2.0859-1.6914 3.7773-3.7773 3.7773h-22.371c-2.0859 0-3.7773-1.6914-3.7773-3.7773z"></path>
  <path d="m212.17 441.48c-0.03125 0-0.054687-0.015625-0.085937-0.015625h-9.832v126.57h122.15v-126.57h-40.082c-0.03125 0-0.054688 0.015625-0.085938 0.015625s-0.054687-0.015625-0.085937-0.015625h-71.898c-0.027344 0-0.050781 0.015625-0.082031 0.015625zm72.34 30.055c0-2.0859 1.6914-3.7773 3.7773-3.7773h19.473c2.0859 0 3.7773 1.6914 3.7773 3.7773v19.473c0 2.0859-1.6914 3.7773-3.7773 3.7773h-19.473c-2.0859 0-3.7773-1.6914-3.7773-3.7773zm0 46.961c0-2.0859 1.6914-3.7773 3.7773-3.7773h19.473c2.0859 0 3.7773 1.6914 3.7773 3.7773v19.473c0 2.0859-1.6914 3.7773-3.7773 3.7773h-19.473c-2.0859 0-3.7773-1.6914-3.7773-3.7773zm-34.695-46.961c0-2.0859 1.6914-3.7773 3.7773-3.7773h19.473c2.0859 0 3.7773 1.6914 3.7773 3.7773v19.473c0 2.0859-1.6914 3.7773-3.7773 3.7773h-19.473c-2.0859 0-3.7773-1.6914-3.7773-3.7773zm0 46.961c0-2.0859 1.6914-3.7773 3.7773-3.7773h19.473c2.0859 0 3.7773 1.6914 3.7773 3.7773v19.473c0 2.0859-1.6914 3.7773-3.7773 3.7773h-19.473c-2.0859 0-3.7773-1.6914-3.7773-3.7773zm-34.699-46.961c0-2.0859 1.6914-3.7773 3.7773-3.7773h19.473c2.0859 0 3.7773 1.6914 3.7773 3.7773v19.473c0 2.0859-1.6914 3.7773-3.7773 3.7773h-19.473c-2.0859 0-3.7773-1.6914-3.7773-3.7773zm0 46.961c0-2.0859 1.6914-3.7773 3.7773-3.7773h19.473c2.0859 0 3.7773 1.6914 3.7773 3.7773v19.473c0 2.0859-1.6914 3.7773-3.7773 3.7773h-19.473c-2.0859 0-3.7773-1.6914-3.7773-3.7773z"></path>
  <path d="m215.95 419.23h64.512v14.68h-64.512z"></path>
  <path d="m515.21 301.21h-19.219l19.219 49.77z"></path>
  <path d="m429.72 247.64 8.543-15.906h-17.09z"></path>
  <path d="m363.97 251.84-8.5703-15.906-8.543 15.906z"></path>
  <path d="m597.74 441.47h-9.832c-0.03125 0-0.054687 0.015625-0.085937 0.015625s-0.054688-0.015625-0.085938-0.015625h-71.898c-0.03125 0-0.054688 0.015625-0.085938 0.015625s-0.054687-0.015625-0.085937-0.015625h-40.082v126.57h122.16zm-82.258 96.5c0 2.0859-1.6914 3.7773-3.7773 3.7773h-19.473c-2.0859 0-3.7773-1.6914-3.7773-3.7773v-19.473c0-2.0859 1.6914-3.7773 3.7773-3.7773h19.473c2.0859 0 3.7773 1.6914 3.7773 3.7773zm0-46.961c0 2.0859-1.6914 3.7773-3.7773 3.7773h-19.473c-2.0859 0-3.7773-1.6914-3.7773-3.7773v-19.469c0-2.0859 1.6914-3.7773 3.7773-3.7773h19.473c2.0859 0 3.7773 1.6914 3.7773 3.7773zm34.699 46.961c0 2.0859-1.6914 3.7773-3.7773 3.7773h-19.473c-2.0859 0-3.7773-1.6914-3.7773-3.7773v-19.473c0-2.0859 1.6914-3.7773 3.7773-3.7773h19.473c2.0859 0 3.7773 1.6914 3.7773 3.7773zm0-46.961c0 2.0859-1.6914 3.7773-3.7773 3.7773h-19.473c-2.0859 0-3.7773-1.6914-3.7773-3.7773l-0.003906-19.469c0-2.0859 1.6914-3.7773 3.7773-3.7773h19.473c2.0859 0 3.7773 1.6914 3.7773 3.7773zm34.695 46.961c0 2.0859-1.6914 3.7773-3.7773 3.7773h-19.473c-2.0859 0-3.7773-1.6914-3.7773-3.7773v-19.473c0-2.0859 1.6914-3.7773 3.7773-3.7773h19.473c2.0859 0 3.7773 1.6914 3.7773 3.7773zm0-46.961c0 2.0859-1.6914 3.7773-3.7773 3.7773h-19.473c-2.0859 0-3.7773-1.6914-3.7773-3.7773l-0.003906-19.469c0-2.0859 1.6914-3.7773 3.7773-3.7773h19.473c2.0859 0 3.7773 1.6914 3.7773 3.7773z"></path>
  <path d="m519.54 419.23h64.512v14.68h-64.512z"></path>
  <path d="m436.05 251.84h17.078l-8.5352-15.898z"></path>
  <path d="m347.28 326.82h105.44v24.848h-105.44z"></path>
  <path d="m468.3 293.65h15.859l-7.9258-14.766z"></path>
  <path d="m370.27 247.64 8.543-15.906h-17.09z"></path>
  <path d="m385.13 235.95-8.5352 15.895h17.074z"></path>
  <path d="m490.48 289.45 7.9336-14.773h-15.867z"></path>
  <path d="m553.83 293.65h15.863l-7.9297-14.766z"></path>
  <path d="m547.52 289.47 7.9297-14.801h-15.875z"></path>
  <path d="m512.67 293.65-7.9297-14.766-7.9297 14.766z"></path>
  <path d="m396.21 259.41h-20.465l20.465 52.938z"></path>
  <path d="m387.13 309.79-19.453-50.375h-19.445z"></path>
  <path d="m406.32 251.84h17.074l-8.5391-15.895z"></path>
  <path d="m432.31 259.41-19.438 50.336 38.883-50.336z"></path>
  <path d="m408.54 231.74h-17.086l8.543 15.902z"></path>
  <path d="m403.77 312.34 20.434-52.926h-20.434z"></path>
 </g>

      </g>
      </svg>