<svg id="svg" fill="#000000" stroke="#000000" width="200px" height="200px" version="1.1" viewBox="144 144 512 512" xmlns="http://www.w3.org/2000/svg">
    <g id="IconSvg_bgCarrier" stroke-width="0"></g>
    <g id="IconSvg_tracerCarrier" stroke-linecap="round" stroke-linejoin="round" stroke="#CCCCCC"></g>
     <g id="IconSvg_iconCarrier">
      <g xmlns="http://www.w3.org/2000/svg">
  <path d="m524.18 580.21c0 10.059-8.1523 18.211-18.211 18.211-10.055 0-18.211-8.1523-18.211-18.211s8.1562-18.211 18.211-18.211c10.059 0 18.211 8.1523 18.211 18.211"></path>
  <path d="m630.91 540.34c0 10.062-8.1562 18.223-18.219 18.223-10.066 0-18.223-8.1602-18.223-18.223s8.1562-18.219 18.223-18.219c10.062 0 18.219 8.1562 18.219 18.219"></path>
  <path d="m570.07 396.38-4.5977-12.238c-4.4922-12.039-18.82-18.629-30.91-14.105l-71.406 26.672c-6.0039 2.2578-10.781 6.707-13.445 12.543-2.6641 5.8477-2.8867 12.387-0.66016 18.391l4.5781 12.238c3.5039 9.3633 12.543 15.629 22.523 15.629 2.8672 0 5.6992-0.51562 8.4062-1.5234l71.383-26.68c12.43-4.625 18.766-18.5 14.129-30.926zm-40.367 13.715-36.59 13.688c-0.62109 0.21875-1.2266 0.31641-1.8281 0.31641-2.1289 0-4.1445-1.2891-4.9219-3.4023-1.0273-2.7188 0.36719-5.7422 3.0742-6.7578l36.59-13.688c2.75-1.0078 5.7422 0.36719 6.7695 3.0742 1.0078 2.7305-0.36719 5.7305-3.0938 6.7695z"></path>
  <path d="m599.32 474.67-11.566-30.941c-4.5117-12.027-18.82-18.652-30.934-14.105l-71.383 26.66c-6.0039 2.2578-10.781 6.7188-13.465 12.543-2.6641 5.8672-2.8867 12.387-0.64062 18.391l11.566 30.953c3.4844 9.3711 12.543 15.641 22.523 15.641 2.8672 0 5.6992-0.51562 8.4062-1.5312l71.383-26.672c12.434-4.6367 18.75-18.512 14.109-30.938zm-43.859 4.3672-36.59 13.676c-0.62109 0.21875-1.2266 0.32422-1.8477 0.32422-2.1094 0-4.125-1.3125-4.9023-3.4102-1.0273-2.7188 0.36719-5.7422 3.0742-6.7578l36.59-13.688c2.707-1.0078 5.7422 0.36719 6.75 3.0859 1.0156 2.7383-0.35938 5.7695-3.0742 6.7695z"></path>
  <path d="m620.84 510.12c-1.0273-2.7188-4.0391-4.0938-6.7695-3.0859l-123.88 46.289-62.418-167.07c6.3711-4.207 10.621-11.43 10.621-19.637 0-12.973-10.578-23.543-23.555-23.543h-47.633l-57.57-33.754c-9.7305-5.7188-21.129-7.293-32.043-4.4492-10.926 2.8438-20.09 9.7812-25.801 19.512-3.8008 6.4766-5.8164 13.875-5.8164 21.379v90.832l-26.902 63.051-42.738 46.098c-4.9453 5.3438-7.5156 12.258-7.2422 19.523 0.27344 7.2539 3.3594 13.98 8.6914 18.926 5.2383 4.8594 11.871 7.2539 18.504 7.2539 7.293 0 14.578-2.9062 19.934-8.668 0-0.011719 0.019532-0.011719 0.019532-0.019531l40.398-43.539c5.8359-6.2969 10.508-13.465 13.875-21.379l13.434-31.488 54.359 98.074c3.5273 6.3398 9.3086 10.969 16.301 12.953 2.4883 0.71484 5.0156 1.0703 7.5352 1.0703 4.5547 0 9.0586-1.1445 13.152-3.4102 13.121-7.2734 17.875-23.867 10.602-36.988l-69.516-125.41v-64.73l20.641 12.074c11.387 6.6875 24.395 10.211 37.605 10.211h40.223c1.0703 0 2.0664-0.17969 3.0977-0.30469l64.289 172.05c0.47266 1.3008 1.457 2.3711 2.7305 2.9375 0.69141 0.30469 1.4375 0.47266 2.1953 0.47266 0.62109 0 1.25-0.11719 1.8281-0.32422l128.82-48.137c2.668-1.0352 4.043-4.0586 3.0352-6.7773z"></path>
  <path d="m337.96 236.71h-28.77l2.2266-29.516c0.11719-1.457-0.38672-2.8867-1.3867-3.9688-0.99609-1.082-2.3945-1.6797-3.8516-1.6797h-49.973c-1.457 0-2.8555 0.60938-3.8516 1.6797-0.99609 1.0703-1.4922 2.5195-1.375 3.9766l2.5 33.105c-5.0156 6.75-7.3672 14.969-6.6641 23.406 0.76562 9.1836 5.0586 17.527 12.102 23.469 6.2891 5.3203 14.086 8.1641 22.23 8.1641 0.96484 0 1.9531-0.042968 2.9297-0.125 9.1836-0.76562 17.52-5.0586 23.469-12.09 8.668-10.254 10.465-24.172 5.375-35.938h25.055c2.8984 0 5.2461-2.3516 5.2461-5.2461-0.003906-2.8984-2.3555-5.2383-5.2617-5.2383zm-37.441-24.656-1.8672 24.664h-34.93l-1.8672-24.664z"></path>
 </g>

      </g>
      </svg>